<?xml version="1.0" standalone="no"?>
<!DOCTYPE svg PUBLIC "-//W3C//DTD SVG 20010904//EN"
 "http://www.w3.org/TR/2001/REC-SVG-20010904/DTD/svg10.dtd">
<svg version="1.0" xmlns="http://www.w3.org/2000/svg"
 width="300.000000pt" height="300.000000pt" viewBox="0 0 300.000000 300.000000"
 preserveAspectRatio="xMidYMid meet">
<metadata>
Created by potrace 1.11, written by Peter Selinger 2001-2013
</metadata>
<g transform="translate(0.000000,300.000000) scale(0.100000,-0.100000)"
fill="#000000" stroke="none">
<path d="M2395 2804 c-258 -59 -588 -152 -837 -234 -195 -65 -464 -165 -480
-179 -4 -3 116 -2 266 3 151 5 300 5 332 1 l59 -7 -38 -22 c-90 -50 -340 -219
-435 -293 -547 -428 -924 -955 -1132 -1583 -42 -128 -86 -298 -78 -305 3 -3
633 -4 1401 -3 l1396 3 -51 65 c-240 306 -448 727 -518 1047 -72 333 -40 659
95 950 29 62 37 73 59 73 32 0 350 -65 442 -90 38 -11 73 -20 77 -20 24 0 -29
173 -89 292 -81 163 -219 349 -257 347 -12 -1 -107 -21 -212 -45z m-228 -322
c-10 -10 -14 -21 -11 -24 3 -3 -1 -9 -8 -14 -7 -4 -10 -4 -6 1 4 4 2 15 -5 23
-9 12 -9 14 0 9 7 -5 17 0 25 12 7 11 14 18 17 16 2 -3 -3 -13 -12 -23z m-126
-109 c13 -16 12 -17 -3 -4 -10 7 -18 15 -18 17 0 8 8 3 21 -13z m-81 -58 c7
-9 8 -15 2 -15 -5 0 -12 7 -16 15 -3 8 -4 15 -2 15 2 0 9 -7 16 -15z m20 -120
c0 -7 -30 -13 -34 -7 -3 4 4 9 15 9 10 1 19 0 19 -2z m-30 -81 c0 -8 -19 -13
-24 -6 -3 5 1 9 9 9 8 0 15 -2 15 -3z m-87 -109 c-3 -9 -8 -14 -10 -11 -3 3
-2 9 2 15 9 16 15 13 8 -4z m-203 -9 c0 -2 -8 -10 -17 -17 -16 -13 -17 -12 -4
4 13 16 21 21 21 13z m-157 -261 c-3 -9 -8 -14 -10 -11 -3 3 -2 9 2 15 9 16
15 13 8 -4z m-110 -100 c-3 -9 -8 -14 -10 -11 -3 3 -2 9 2 15 9 16 15 13 8 -4z"/>
</g>
</svg>
